# xmcd
#
# Track frame offsets:
#	150
#	7560
#	21705
#	30735
#	33140
#	47995
#	56760
#	61620
#	72282
#	85840
#	96955
#	104272
#	115192
#	129937
#	138292
#	149670
#	165882
#
# Disc length: 2467 seconds
#
# Revision: 0
# Processed by: cddbd v1.5.2PL0 Copyright (c) Steve Scherf et al.
# Submitted via: audiograbber 1.83.01
#
DISCID=db09a111
DTITLE=Patsy Cline - Live At The Cimarron Ballroom (7-29-1961)
DYEAR=1961
DGENRE=Country
TTITLE0=Come On In
TTITLE1=A Poor Man's Roses
TTITLE2=Bill Bailey, Won't You Please Come Home
TTITLE3=Patsy dialogue
TTITLE4=I Fall To Pieces
TTITLE5=Lovesick Blues
TTITLE6=Patsy dialogue
TTITLE7=Shake Rattle and Roll
TTITLE8=There He Goes
TTITLE9=San Antonio Rose (intermission)
TTITLE10=Patsy talks about car accident
TTITLE11=Stupid Cupid
TTITLE12=I Fall To Pieces
TTITLE13=If I Could See The World Through The Eyes Of A Child 
TTITLE14=Walking After Midnight
TTITLE15=Foolin' 'Round
TTITLE16=When My Dreamboat Comes Home
EXTD=Recorded live in Tulsa, Oklahoma, this cd was released  on July 29th, 36 y
EXTD=ears to the day that it was recorded.
EXTT0=
EXTT1=
EXTT2=
EXTT3=
EXTT4=
EXTT5=
EXTT6=
EXTT7=
EXTT8=
EXTT9=
EXTT10=
EXTT11=
EXTT12=
EXTT13=
EXTT14=
EXTT15=
EXTT16=
PLAYORDER=
